<svg xmlns="http://www.w3.org/2000/svg" width="32" height="32"><path fill="#fcd062" fill-rule="evenodd" d="M23.993 21.715v10.276l-.007.007-7.991-3.418-.007-.011V18.293l.007.012 7.991 3.418z"/><path fill="#f8aa3a" fill-rule="evenodd" d="m24 21.72 7.991-3.418.008-.013v10.276l-.008.012-7.99 3.417z"/><path fill="#f8b84e" fill-rule="evenodd" d="m31.991 18.293-7.99-3.417h-.015l-7.991 3.417v.009l7.991 3.417z"/><path fill="#e9eded" fill-rule="evenodd" d="m26.566 15.973-7.857 3.484v4.663l1.389-.685 1.37 2.055-.002-4.85 7.823-3.503z"/><path fill="none" stroke="#34485c" stroke-linecap="round" stroke-linejoin="round" d="m29.363 27.548-1.998.855-1.997.854m1.997-2.52-1.997.854"/><path fill="#fcd062" fill-rule="evenodd" d="M8.004 21.715v10.276l-.007.007L.006 28.58l-.007-.011V18.293l.007.012 7.991 3.418z"/><path fill="#f8aa3a" fill-rule="evenodd" d="m8.011 21.72 7.991-3.418.008-.013v10.276l-.008.012-7.99 3.417z"/><path fill="#f8b84e" fill-rule="evenodd" d="m16.002 18.293-7.99-3.417h-.015L.006 18.293v.009l7.991 3.417z"/><path fill="#e9eded" fill-rule="evenodd" d="M10.577 15.973 2.72 19.457v4.663l1.389-.685 1.37 2.055-.002-4.85 7.823-3.503z"/><path fill="none" stroke="#34485c" stroke-linecap="round" stroke-linejoin="round" d="m13.374 27.548-1.998.855-1.997.854m1.997-2.52-1.997.854"/><path fill="#fcd062" fill-rule="evenodd" d="M16.01 8.053v10.276l-.008.007-7.991-3.418-.007-.011V4.63l.007.012 7.991 3.418z"/><path fill="#f8aa3a" fill-rule="evenodd" d="m16.016 8.057 7.991-3.417.008-.013v10.276l-.008.012-7.99 3.417z"/><path fill="#f8b84e" fill-rule="evenodd" d="m24.007 4.631-7.99-3.417h-.015L8.011 4.63v.009l7.991 3.417z"/><path fill="#e9eded" fill-rule="evenodd" d="m18.582 2.311-7.857 3.484v4.663l1.389-.685 1.37 2.055-.002-4.85 7.823-3.503z"/><path fill="none" stroke="#34485c" stroke-linecap="round" stroke-linejoin="round" d="m21.38 13.886-1.999.855-1.997.854m1.997-2.52-1.997.854"/></svg>