<svg xmlns="http://www.w3.org/2000/svg" enable-background="new 0 0 50 50" viewBox="0 0 50 50"><polygon fill="#B0B8BC" points="49 30.983 48.996 32.293 27.173 44.975 27.177 43.665"/><polygon fill="#CFD8DD" points="27.177 43.665 27.173 44.975 1 29.864 1.004 28.554"/><polygon fill="#765F54" points="49 32.285 48.996 34.487 27.173 47.169 27.177 44.967"/><polygon fill="#8B6F62" points="27.177 44.967 27.173 47.169 1 32.058 1.004 29.856"/><polygon fill="#DDE4E7" points="49 30.983 27.177 43.665 1.004 28.554 22.827 15.872"/><polygon fill="#BBB" points="32.258 8.746 29.816 23.744 17.486 30.909 17.525 17.308"/><polygon fill="#FED44C" points="32.258 7.787 32.219 22.347 14.906 32.409 14.944 17.849"/><polygon fill="#DDE4E7" points="32.258 7.787 17.525 16.349 14.944 17.849 6.36 13.007 23.674 2.831"/><polygon fill="#FEE182" points="14.944 17.849 14.906 32.409 6.321 27.453 6.36 13.007"/><polygon fill="#FEE182" points="32.297 25.837 32.258 39.438 17.486 30.909 17.525 17.308"/><polygon fill="#778C95" points="14.029 31.538 14.031 31.088 7.353 27.233 7.351 27.683"/><polygon fill="#40545D" points="7.353 27.134 7.353 27.233 14.031 31.088 14.031 30.99"/><polygon fill="#778C95" points="14.031 30.99 14.032 30.496 7.354 26.641 7.353 27.134"/><polygon fill="#40545D" points="7.354 26.542 7.354 26.641 14.032 30.496 14.032 30.397"/><polygon fill="#778C95" points="14.033 30.397 14.034 29.904 7.356 26.048 7.354 26.542"/><polygon fill="#40545D" points="7.356 25.949 7.356 26.048 14.034 29.904 14.034 29.805"/><polygon fill="#778C95" points="14.034 29.805 14.036 29.311 7.358 25.456 7.356 25.949"/><polygon fill="#40545D" points="7.358 25.357 7.358 25.456 14.036 29.311 14.036 29.213"/><polygon fill="#778C95" points="14.036 29.213 14.037 28.73 7.359 24.875 7.358 25.357"/><polygon fill="#40545D" points="7.36 24.776 7.359 24.875 14.037 28.73 14.037 28.631"/><polygon fill="#778C95" points="14.037 28.631 14.039 28.127 7.361 24.271 7.36 24.776"/><polygon fill="#40545D" points="7.361 24.172 7.361 24.271 14.039 28.127 14.039 28.028"/><polygon fill="#778C95" points="14.039 28.028 14.041 27.545 7.363 23.69 7.361 24.172"/><polygon fill="#40545D" points="7.363 23.592 7.363 23.69 14.041 27.545 14.041 27.447"/><polygon fill="#778C95" points="14.041 27.447 14.042 26.943 7.364 23.087 7.363 23.592"/><polygon fill="#40545D" points="7.365 22.988 7.364 23.087 14.042 26.943 14.043 26.844"/><polygon fill="#778C95" points="14.043 26.844 14.044 26.361 7.366 22.506 7.365 22.988"/><polygon fill="#40545D" points="7.366 22.407 7.366 22.506 14.044 26.361 14.044 26.262"/><polygon fill="#778C95" points="14.044 26.262 14.046 25.78 7.368 21.924 7.366 22.407"/><polygon fill="#40545D" points="7.368 21.815 7.368 21.924 14.046 25.78 14.046 25.67"/><polygon fill="#778C95" points="14.046 25.67 14.047 25.176 7.369 21.321 7.368 21.815"/><polygon fill="#40545D" points="7.37 21.222 7.369 21.321 14.047 25.176 14.048 25.078"/><polygon fill="#778C95" points="14.048 25.078 14.049 24.595 7.371 20.739 7.37 21.222"/><polygon fill="#40545D" points="7.371 20.63 7.371 20.739 14.049 24.595 14.049 24.485"/><polygon fill="#778C95" points="14.049 24.486 14.051 23.992 7.373 20.137 7.371 20.63"/><polygon fill="#40545D" points="7.373 20.049 7.373 20.137 14.051 23.992 14.051 23.904"/><polygon fill="#778C95" points="14.051 23.904 14.052 23.411 7.374 19.555 7.373 20.049"/><polygon fill="#DDE4E7" points="7.357 27.683 7.026 27.862 14.036 31.892 14.037 31.524"/><polygon fill="#FED44C" points="7.383 19.547 7.054 19.339 7.026 27.862 7.357 27.683"/><polygon fill="#FED44C" points="47.03 17.275 46.991 30.876 32.258 39.438 32.297 25.837"/><polygon fill="#DDE4E7" points="47.03 17.275 32.297 25.837 17.525 17.308 32.258 8.746"/><polygon fill="#56707B" points="29.941 8.527 23.676 4.91 8.688 13.718 14.94 17.245"/><polygon fill="#56707B" points="44.712 18.015 32.259 10.824 19.842 18.04 32.295 25.23"/><g><polygon fill="#4BB5E7" points="42.379 21.243 42.395 22.928 44.637 21.637 45.587 21.084 45.869 20.925 46.087 20.797 46.087 20.718 46.071 19.113 44.35 20.106 44.095 20.25 43.813 20.415 42.862 20.967"/><polygon fill="#61C4F0" points="44.095 20.25 45.869 20.925 46.087 20.797 46.087 20.718 44.35 20.106"/><polygon fill="#61C4F0" points="42.862 20.967 44.637 21.637 45.587 21.084 43.813 20.415"/><polygon fill="#D8B441" points="46.086 20.797 46.072 19.111 46.277 18.992 46.293 20.907 46.086 20.797"/><polygon fill="#FEE182" points="46.086 20.797 46.293 20.907 46.293 20.907 42.396 23.156 42.395 22.928"/><polygon fill="#4BB5E7" points="37.93 23.888 37.946 25.572 40.188 24.281 41.139 23.729 41.421 23.569 41.639 23.442 41.639 23.362 41.623 21.758 39.901 22.751 39.646 22.894 39.365 23.059 38.414 23.612"/><polygon fill="#61C4F0" points="39.646 22.894 41.421 23.569 41.639 23.442 41.639 23.362 39.901 22.751"/><polygon fill="#61C4F0" points="38.414 23.612 40.188 24.281 41.139 23.729 39.365 23.059"/><polygon fill="#D8B441" points="41.638 23.442 41.623 21.755 41.829 21.637 41.845 23.552 41.638 23.442"/><polygon fill="#FEE182" points="41.638 23.442 41.845 23.552 41.845 23.552 37.947 25.801 37.946 25.572"/><g><polygon fill="#4BB5E7" points="33.482 26.533 33.498 28.217 35.74 26.926 36.691 26.373 36.972 26.214 37.19 26.086 37.19 26.007 37.174 24.402 35.453 25.396 35.198 25.539 34.917 25.704 33.966 26.256"/><polygon fill="#61C4F0" points="35.198 25.539 36.972 26.214 37.19 26.086 37.19 26.007 35.453 25.396"/><polygon fill="#61C4F0" points="33.966 26.256 35.74 26.926 36.691 26.373 34.917 25.704"/><polygon fill="#D8B441" points="37.19 26.086 37.175 24.4 37.381 24.281 37.396 26.196 37.19 26.086"/><polygon fill="#FEE182" points="37.19 26.086 37.396 26.196 37.396 26.196 33.499 28.446 33.498 28.217"/></g></g><g><polygon fill="#4BB5E7" points="42.379 23.888 42.395 25.572 44.637 24.281 45.587 23.729 45.869 23.569 46.087 23.442 46.087 23.362 46.071 21.758 44.35 22.751 44.095 22.894 43.813 23.059 42.862 23.612"/><polygon fill="#61C4F0" points="44.095 22.894 45.869 23.569 46.087 23.442 46.087 23.362 44.35 22.751"/><polygon fill="#61C4F0" points="42.862 23.612 44.637 24.281 45.587 23.729 43.813 23.059"/><polygon fill="#D8B441" points="46.086 23.442 46.072 21.755 46.277 21.637 46.293 23.552 46.086 23.442"/><polygon fill="#FEE182" points="46.086 23.442 46.293 23.552 46.293 23.552 42.396 25.801 42.395 25.572"/><polygon fill="#4BB5E7" points="37.93 26.533 37.946 28.217 40.188 26.926 41.139 26.373 41.421 26.214 41.639 26.086 41.639 26.007 41.623 24.402 39.901 25.396 39.646 25.539 39.365 25.704 38.414 26.256"/><polygon fill="#61C4F0" points="39.646 25.539 41.421 26.214 41.639 26.086 41.639 26.007 39.901 25.396"/><polygon fill="#61C4F0" points="38.414 26.256 40.188 26.926 41.139 26.373 39.365 25.704"/><polygon fill="#D8B441" points="41.638 26.086 41.623 24.4 41.829 24.281 41.845 26.196 41.638 26.086"/><polygon fill="#FEE182" points="41.638 26.086 41.845 26.196 41.845 26.196 37.947 28.446 37.946 28.217"/><g><polygon fill="#4BB5E7" points="33.482 29.177 33.498 30.861 35.74 29.57 36.691 29.018 36.972 28.859 37.19 28.731 37.19 28.651 37.174 27.047 35.453 28.04 35.198 28.184 34.917 28.348 33.966 28.901"/><polygon fill="#61C4F0" points="35.198 28.184 36.972 28.859 37.19 28.731 37.19 28.651 35.453 28.04"/><polygon fill="#61C4F0" points="33.966 28.901 35.74 29.57 36.691 29.018 34.917 28.348"/><polygon fill="#D8B441" points="37.19 28.731 37.175 27.044 37.381 26.926 37.396 28.841 37.19 28.731"/><polygon fill="#FEE182" points="37.19 28.731 37.396 28.841 37.396 28.841 33.499 31.09 33.498 30.861"/></g></g><g><polygon fill="#B0B8BC" points="7.411 12.998 8.688 13.718 23.676 4.91 23.676 3.438"/><polygon fill="#CFD8DD" points="23.676 3.438 23.676 4.91 29.941 8.527 31.211 7.789"/></g><g><polygon fill="#CFD8DD" points="32.259 9.353 32.259 10.824 44.712 18.015 45.983 17.276"/><polygon fill="#B0B8BC" points="18.571 17.307 19.842 18.04 32.259 10.824 32.259 9.353"/></g><g><polygon fill="#4BB5E7" points="29.185 28.869 29.15 37.12 24.232 34.288 22.145 33.076 21.528 32.726 21.05 32.446 21.05 32.272 21.085 24.195 24.861 26.374 25.42 26.689 26.038 27.05 28.124 28.263"/><polygon fill="#61C4F0" points="25.42 26.689 21.528 32.726 21.05 32.446 21.05 32.272 24.861 26.374"/><polygon fill="#61C4F0" points="28.124 28.263 24.232 34.288 22.145 33.076 26.038 27.05"/><polygon fill="#FED44C" points="21.051 32.446 21.083 24.19 20.632 23.93 20.598 32.688 21.051 32.446"/><polygon fill="#DDE4E7" points="21.051 32.446 20.598 32.688 20.598 32.688 29.148 37.622 29.15 37.12"/></g><g><polygon fill="#B28C59" points="19.127 30.281 19.133 32.136 19.172 32.114 19.167 30.258"/><polygon fill="#BF9960" points="19.167 30.258 19.172 32.114 19.456 31.95 19.451 30.094"/><polygon fill="#B28C59" points="18.804 30.467 18.81 32.323 18.849 32.3 18.843 30.445"/><polygon fill="#BF9960" points="18.843 30.445 18.849 32.3 19.133 32.136 19.127 30.281"/><polygon fill="#B28C59" points="18.481 30.654 18.486 32.51 18.525 32.487 18.52 30.632"/><polygon fill="#BF9960" points="18.52 30.632 18.525 32.487 18.81 32.323 18.804 30.467"/><polygon fill="#B28C59" points="18.157 30.841 18.163 32.696 18.202 32.674 18.197 30.818"/><polygon fill="#BF9960" points="18.197 30.818 18.202 32.674 18.486 32.51 18.481 30.654"/><polygon fill="#755E3B" points="17.834 31.028 17.84 32.883 17.878 32.861 17.873 31.005"/><polygon fill="#BF9960" points="17.873 31.005 17.878 32.861 18.163 32.696 18.157 30.841"/><polygon fill="#DCB884" points="19.84 31.805 19.77 31.764 19.456 31.946 19.526 31.987"/><polygon fill="#FFD69A" points="19.526 31.987 19.456 31.946 17.842 32.878 17.912 32.918"/><polygon fill="#C6A677" points="17.598 33.1 17.528 33.059 17.529 33.42 17.599 33.461"/><polygon fill="#DCB884" points="17.912 32.918 17.842 32.878 17.528 33.059 17.598 33.1"/><polygon fill="#D9AE6D" points="17.598 33.1 17.599 33.461 19.841 32.166 19.84 31.805 19.526 31.987 17.912 32.918"/><g><polygon fill="#FECD82" points="19.521 30.131 19.451 30.09 19.456 31.946 19.526 31.987"/><polygon fill="#D9AE6D" points="17.591 30.885 17.521 30.844 17.528 33.059 17.598 33.1"/><polygon fill="#FFD69A" points="19.834 29.59 19.764 29.549 17.521 30.844 17.591 30.885"/><polygon fill="#D9AE6D" points="17.591 30.885 17.598 33.1 17.912 32.918 17.907 31.063 19.521 30.131 19.526 31.987 19.84 31.805 19.834 29.59"/></g><g><polygon fill="#BF9960" points="16.055 30.28 16.05 32.136 16.01 32.113 16.015 30.257"/><polygon fill="#D9AE6D" points="16.015 30.257 16.01 32.113 15.726 31.949 15.731 30.093"/><polygon fill="#BF9960" points="16.378 30.467 16.373 32.322 16.334 32.3 16.339 30.444"/><polygon fill="#D9AE6D" points="16.339 30.444 16.334 32.3 16.05 32.136 16.055 30.28"/><polygon fill="#BF9960" points="16.701 30.653 16.696 32.509 16.657 32.486 16.663 30.631"/><polygon fill="#D9AE6D" points="16.663 30.631 16.657 32.486 16.373 32.322 16.378 30.467"/><polygon fill="#BF9960" points="17.025 30.84 17.02 32.696 16.98 32.673 16.986 30.817"/><polygon fill="#D9AE6D" points="16.986 30.817 16.98 32.673 16.696 32.509 16.701 30.653"/><polygon fill="#755E3B" points="17.348 31.027 17.343 32.882 17.304 32.86 17.309 31.004"/><polygon fill="#D9AE6D" points="17.309 31.004 17.304 32.86 17.02 32.696 17.025 30.84"/><polygon fill="#DCB884" points="15.342 31.804 15.412 31.764 15.726 31.945 15.656 31.986"/><polygon fill="#FFD69A" points="15.656 31.986 15.726 31.945 17.34 32.877 17.27 32.918"/><polygon fill="#FECD82" points="17.585 33.099 17.584 33.46 15.341 32.165 15.342 31.804 15.656 31.986 17.27 32.918"/><g><polygon fill="#BF9960" points="15.661 30.13 15.731 30.09 15.726 31.945 15.656 31.986"/><polygon fill="#FFD69A" points="15.348 29.589 15.418 29.548 17.661 30.843 17.591 30.884"/><polygon fill="#FECD82" points="17.591 30.884 17.585 33.099 17.27 32.918 17.275 31.062 15.661 30.13 15.656 31.986 15.342 31.804 15.348 29.589"/></g></g><g><polygon fill="#D9AE6D" points="17.869 28.824 17.868 28.905 17.58 28.739 17.581 28.657"/><polygon fill="#8A7453" points="17.908 28.846 17.908 28.928 17.868 28.905 17.869 28.824"/><polygon fill="#D9AE6D" points="18.196 29.013 18.196 29.094 17.908 28.928 17.908 28.846"/><polygon fill="#8A7453" points="18.235 29.036 18.235 29.117 18.196 29.094 18.196 29.013"/><polygon fill="#D9AE6D" points="18.523 29.202 18.523 29.283 18.235 29.117 18.235 29.036"/><polygon fill="#8A7453" points="18.563 29.225 18.562 29.306 18.523 29.283 18.523 29.202"/><polygon fill="#D9AE6D" points="18.851 29.391 18.85 29.472 18.562 29.306 18.563 29.225"/><polygon fill="#8A7453" points="18.89 29.414 18.89 29.495 18.85 29.472 18.851 29.391"/><polygon fill="#D9AE6D" points="19.177 29.579 19.177 29.661 18.89 29.495 18.89 29.414"/><polygon fill="#BF9960" points="17.581 28.657 17.58 28.739 15.976 29.671 15.976 29.59"/><polygon fill="#8A7453" points="15.976 29.59 15.976 29.671 15.662 29.49 15.662 29.408"/><polygon fill="#8A7453" points="19.217 29.602 19.217 29.683 19.177 29.661 19.177 29.579"/><polygon fill="#FECD82" points="17.869 28.871 16.264 29.803 15.977 29.637 17.581 28.704"/><polygon fill="#8A6E46" points="16.264 29.756 16.264 29.837 15.977 29.671 15.977 29.59"/><polygon fill="#C49C63" points="17.869 28.824 17.868 28.905 16.264 29.837 16.264 29.756"/><polygon fill="#BF9960" points="17.908 28.846 17.908 28.928 16.303 29.86 16.304 29.779"/><polygon fill="#FFD69A" points="17.908 28.846 16.304 29.779 16.264 29.756 17.869 28.824"/><polygon fill="#755E3B" points="16.304 29.779 16.303 29.86 16.264 29.837 16.264 29.756"/><polygon fill="#8A6E46" points="16.592 29.945 16.591 30.026 16.303 29.86 16.304 29.779"/><polygon fill="#C49C63" points="18.196 29.013 18.196 29.094 16.591 30.026 16.592 29.945"/><polygon fill="#FECD82" points="18.196 29.06 16.592 29.992 16.304 29.826 17.908 28.893"/><polygon fill="#FFD69A" points="18.235 29.036 16.631 29.968 16.592 29.945 18.196 29.013"/><polygon fill="#755E3B" points="16.631 29.968 16.631 30.049 16.591 30.026 16.592 29.945"/><polygon fill="#BF9960" points="18.235 29.036 18.235 29.117 16.631 30.049 16.631 29.968"/><polygon fill="#FECD82" points="18.523 29.249 16.919 30.181 16.631 30.015 18.235 29.083"/><polygon fill="#C49C63" points="18.523 29.202 18.523 29.283 16.919 30.215 16.919 30.134"/><polygon fill="#8A6E46" points="16.919 30.134 16.919 30.215 16.631 30.049 16.631 29.968"/><polygon fill="#FFD69A" points="18.563 29.225 16.958 30.157 16.919 30.134 18.523 29.202"/><polygon fill="#BF9960" points="18.563 29.225 18.562 29.306 16.958 30.238 16.958 30.157"/><polygon fill="#755E3B" points="16.958 30.157 16.958 30.238 16.919 30.215 16.919 30.134"/><polygon fill="#8A6E46" points="17.246 30.323 17.246 30.404 16.958 30.238 16.958 30.157"/><polygon fill="#C49C63" points="18.851 29.391 18.85 29.472 17.246 30.404 17.246 30.323"/><polygon fill="#FECD82" points="18.851 29.438 17.246 30.37 16.958 30.204 18.563 29.272"/><polygon fill="#755E3B" points="17.286 30.346 17.286 30.427 17.246 30.404 17.246 30.323"/><polygon fill="#BF9960" points="18.89 29.414 18.89 29.495 17.286 30.427 17.286 30.346"/><polygon fill="#FFD69A" points="18.89 29.414 17.286 30.346 17.246 30.323 18.851 29.391"/><polygon fill="#C49C63" points="19.177 29.579 19.177 29.661 17.573 30.593 17.573 30.512"/><polygon fill="#FECD82" points="19.177 29.626 17.573 30.559 17.286 30.393 18.89 29.461"/><polygon fill="#8A6E46" points="17.573 30.512 17.573 30.593 17.286 30.427 17.286 30.346"/><polygon fill="#755E3B" points="17.591 30.522 17.591 30.603 17.573 30.593 17.573 30.512"/><polygon fill="#A78554" points="19.217 29.602 19.217 29.683 17.612 30.616 17.613 30.534"/><polygon fill="#755E3B" points="17.613 30.534 17.612 30.616 17.591 30.603 17.591 30.522"/><polygon fill="#FFD69A" points="19.217 29.602 17.613 30.534 17.591 30.522 17.573 30.512 19.177 29.579"/><polygon fill="#FFD69A" points="19.821 29.59 17.905 30.703 17.591 30.522 17.613 30.534 19.217 29.602 19.177 29.579 18.89 29.414 18.851 29.391 18.563 29.225 18.523 29.202 18.235 29.036 18.196 29.013 17.908 28.846 17.869 28.824 17.581 28.657 15.976 29.59 15.662 29.408 17.578 28.295"/><polygon fill="#FFD69A" points="17.905 30.703 17.593 30.885 15.35 29.59 15.662 29.408 15.977 29.59 17.591 30.522"/></g></g><g><polygon fill="#B28C59" points="31.092 38.123 31.098 39.978 31.137 39.956 31.132 38.1"/><polygon fill="#BF9960" points="31.132 38.1 31.137 39.956 31.421 39.792 31.416 37.936"/><polygon fill="#B28C59" points="30.769 38.309 30.775 40.165 30.813 40.142 30.808 38.287"/><polygon fill="#BF9960" points="30.808 38.287 30.813 40.142 31.098 39.978 31.092 38.123"/><polygon fill="#B28C59" points="30.446 38.496 30.451 40.352 30.49 40.329 30.485 38.474"/><polygon fill="#BF9960" points="30.485 38.474 30.49 40.329 30.775 40.165 30.769 38.309"/><polygon fill="#B28C59" points="30.122 38.683 30.128 40.539 30.167 40.516 30.162 38.66"/><polygon fill="#BF9960" points="30.162 38.66 30.167 40.516 30.451 40.352 30.446 38.496"/><polygon fill="#755E3B" points="29.799 38.87 29.805 40.725 29.843 40.703 29.838 38.847"/><polygon fill="#BF9960" points="29.838 38.847 29.843 40.703 30.128 40.539 30.122 38.683"/><polygon fill="#DCB884" points="31.805 39.647 31.735 39.607 31.421 39.788 31.491 39.829"/><polygon fill="#FFD69A" points="31.491 39.829 31.421 39.788 29.807 40.72 29.877 40.761"/><polygon fill="#C6A677" points="29.563 40.942 29.492 40.901 29.493 41.262 29.564 41.303"/><polygon fill="#DCB884" points="29.877 40.761 29.807 40.72 29.492 40.901 29.563 40.942"/><polygon fill="#D9AE6D" points="29.563 40.942 29.564 41.303 31.806 40.008 31.805 39.647 31.491 39.829 29.877 40.761"/><g><polygon fill="#FECD82" points="31.486 37.973 31.416 37.932 31.421 39.788 31.491 39.829"/><polygon fill="#D9AE6D" points="29.556 38.727 29.486 38.686 29.492 40.901 29.563 40.942"/><polygon fill="#FFD69A" points="31.799 37.432 31.729 37.391 29.486 38.686 29.556 38.727"/><polygon fill="#D9AE6D" points="29.556 38.727 29.563 40.942 29.877 40.761 29.872 38.905 31.486 37.973 31.491 39.829 31.805 39.647 31.799 37.432"/></g><g><polygon fill="#BF9960" points="28.02 38.122 28.014 39.978 27.975 39.955 27.98 38.099"/><polygon fill="#D9AE6D" points="27.98 38.099 27.975 39.955 27.691 39.791 27.696 37.935"/><polygon fill="#BF9960" points="28.343 38.309 28.337 40.164 28.299 40.142 28.304 38.286"/><polygon fill="#D9AE6D" points="28.304 38.286 28.299 40.142 28.014 39.978 28.02 38.122"/><polygon fill="#BF9960" points="28.666 38.495 28.661 40.351 28.622 40.328 28.627 38.473"/><polygon fill="#D9AE6D" points="28.627 38.473 28.622 40.328 28.337 40.164 28.343 38.309"/><polygon fill="#BF9960" points="28.99 38.682 28.985 40.538 28.945 40.515 28.95 38.66"/><polygon fill="#D9AE6D" points="28.95 38.66 28.945 40.515 28.661 40.351 28.666 38.495"/><polygon fill="#755E3B" points="29.313 38.869 29.308 40.724 29.269 40.702 29.274 38.846"/><polygon fill="#D9AE6D" points="29.274 38.846 29.269 40.702 28.985 40.538 28.99 38.682"/><polygon fill="#DCB884" points="27.307 39.646 27.377 39.606 27.691 39.787 27.621 39.828"/><polygon fill="#FFD69A" points="27.621 39.828 27.691 39.787 29.305 40.719 29.235 40.76"/><polygon fill="#FECD82" points="29.549 40.941 29.548 41.302 27.306 40.007 27.307 39.646 27.621 39.828 29.235 40.76"/><g><polygon fill="#BF9960" points="27.626 37.972 27.696 37.932 27.691 39.787 27.621 39.828"/><polygon fill="#FFD69A" points="27.313 37.431 27.383 37.39 29.626 38.685 29.556 38.726"/><polygon fill="#FECD82" points="29.556 38.726 29.549 40.941 29.235 40.76 29.24 38.904 27.626 37.972 27.621 39.828 27.307 39.646 27.313 37.431"/></g></g><g><polygon fill="#D9AE6D" points="29.833 36.666 29.833 36.747 29.545 36.581 29.545 36.5"/><polygon fill="#8A7453" points="29.873 36.689 29.873 36.77 29.833 36.747 29.833 36.666"/><polygon fill="#D9AE6D" points="30.161 36.855 30.161 36.936 29.873 36.77 29.873 36.689"/><polygon fill="#8A7453" points="30.2 36.878 30.2 36.959 30.161 36.936 30.161 36.855"/><polygon fill="#D9AE6D" points="30.488 37.044 30.488 37.125 30.2 36.959 30.2 36.878"/><polygon fill="#8A7453" points="30.528 37.067 30.527 37.148 30.488 37.125 30.488 37.044"/><polygon fill="#D9AE6D" points="30.816 37.233 30.815 37.314 30.527 37.148 30.528 37.067"/><polygon fill="#8A7453" points="30.855 37.256 30.855 37.337 30.815 37.314 30.816 37.233"/><polygon fill="#D9AE6D" points="31.142 37.421 31.142 37.503 30.855 37.337 30.855 37.256"/><polygon fill="#BF9960" points="29.545 36.5 29.545 36.581 27.941 37.513 27.941 37.432"/><polygon fill="#8A7453" points="27.941 37.432 27.941 37.513 27.627 37.332 27.627 37.25"/><polygon fill="#8A7453" points="31.182 37.444 31.182 37.525 31.142 37.503 31.142 37.421"/><polygon fill="#FECD82" points="29.833 36.713 28.229 37.645 27.942 37.479 29.545 36.547"/><polygon fill="#8A6E46" points="28.229 37.598 28.229 37.679 27.942 37.513 27.942 37.432"/><polygon fill="#C49C63" points="29.833 36.666 29.833 36.747 28.229 37.679 28.229 37.598"/><polygon fill="#BF9960" points="29.873 36.689 29.873 36.77 28.268 37.702 28.269 37.621"/><polygon fill="#FFD69A" points="29.873 36.689 28.269 37.621 28.229 37.598 29.833 36.666"/><polygon fill="#755E3B" points="28.269 37.621 28.268 37.702 28.229 37.679 28.229 37.598"/><polygon fill="#8A6E46" points="28.557 37.787 28.556 37.868 28.268 37.702 28.269 37.621"/><polygon fill="#C49C63" points="30.161 36.855 30.161 36.936 28.556 37.868 28.557 37.787"/><polygon fill="#FECD82" points="30.161 36.902 28.557 37.834 28.269 37.668 29.873 36.736"/><polygon fill="#FFD69A" points="30.2 36.878 28.596 37.81 28.557 37.787 30.161 36.855"/><polygon fill="#755E3B" points="28.596 37.81 28.596 37.891 28.556 37.868 28.557 37.787"/><polygon fill="#BF9960" points="30.2 36.878 30.2 36.959 28.596 37.891 28.596 37.81"/><polygon fill="#FECD82" points="30.488 37.091 28.884 38.023 28.596 37.857 30.2 36.925"/><polygon fill="#C49C63" points="30.488 37.044 30.488 37.125 28.884 38.057 28.884 37.976"/><polygon fill="#8A6E46" points="28.884 37.976 28.884 38.057 28.596 37.891 28.596 37.81"/><polygon fill="#FFD69A" points="30.528 37.067 28.923 37.999 28.884 37.976 30.488 37.044"/><polygon fill="#BF9960" points="30.528 37.067 30.527 37.148 28.923 38.08 28.923 37.999"/><polygon fill="#755E3B" points="28.923 37.999 28.923 38.08 28.884 38.057 28.884 37.976"/><polygon fill="#8A6E46" points="29.211 38.165 29.211 38.246 28.923 38.08 28.923 37.999"/><polygon fill="#C49C63" points="30.816 37.233 30.815 37.314 29.211 38.246 29.211 38.165"/><polygon fill="#FECD82" points="30.816 37.28 29.211 38.212 28.923 38.046 30.528 37.114"/><polygon fill="#755E3B" points="29.251 38.188 29.251 38.269 29.211 38.246 29.211 38.165"/><polygon fill="#BF9960" points="30.855 37.256 30.855 37.337 29.251 38.269 29.251 38.188"/><polygon fill="#FFD69A" points="30.855 37.256 29.251 38.188 29.211 38.165 30.816 37.233"/><polygon fill="#C49C63" points="31.142 37.421 31.142 37.503 29.538 38.435 29.538 38.354"/><polygon fill="#FECD82" points="31.142 37.468 29.538 38.401 29.251 38.235 30.855 37.303"/><polygon fill="#8A6E46" points="29.538 38.354 29.538 38.435 29.251 38.269 29.251 38.188"/><polygon fill="#755E3B" points="29.556 38.364 29.556 38.445 29.538 38.435 29.538 38.354"/><polygon fill="#A78554" points="31.182 37.444 31.182 37.525 29.577 38.458 29.578 38.377"/><polygon fill="#755E3B" points="29.578 38.377 29.577 38.458 29.556 38.445 29.556 38.364"/><polygon fill="#FFD69A" points="31.182 37.444 29.578 38.377 29.556 38.364 29.538 38.354 31.142 37.421"/><polygon fill="#FFD69A" points="31.786 37.432 29.87 38.545 29.556 38.364 29.578 38.377 31.182 37.444 31.142 37.421 30.855 37.256 30.816 37.233 30.528 37.067 30.488 37.044 30.2 36.878 30.161 36.855 29.873 36.689 29.833 36.666 29.545 36.5 27.941 37.432 27.627 37.25 29.543 36.137"/><polygon fill="#FFD69A" points="29.87 38.545 29.558 38.727 27.315 37.432 27.627 37.25 27.942 37.432 29.556 38.364"/></g></g><g><polygon fill="#B28C59" points="28.228 39.693 28.233 41.548 28.272 41.525 28.267 39.67"/><polygon fill="#BF9960" points="28.267 39.67 28.272 41.525 28.557 41.361 28.551 39.506"/><polygon fill="#B28C59" points="27.905 39.879 27.91 41.735 27.949 41.712 27.944 39.857"/><polygon fill="#BF9960" points="27.944 39.857 27.949 41.712 28.233 41.548 28.228 39.693"/><polygon fill="#B28C59" points="27.581 40.066 27.586 41.922 27.625 41.899 27.62 40.044"/><polygon fill="#BF9960" points="27.62 40.044 27.625 41.899 27.91 41.735 27.905 39.879"/><polygon fill="#B28C59" points="27.258 40.253 27.263 42.108 27.302 42.086 27.297 40.23"/><polygon fill="#BF9960" points="27.297 40.23 27.302 42.086 27.586 41.922 27.581 40.066"/><polygon fill="#755E3B" points="26.935 40.439 26.94 42.295 26.979 42.272 26.973 40.417"/><polygon fill="#BF9960" points="26.973 40.417 26.979 42.272 27.263 42.108 27.258 40.253"/><polygon fill="#DCB884" points="28.941 41.217 28.871 41.176 28.557 41.358 28.627 41.398"/><polygon fill="#FFD69A" points="28.627 41.398 28.557 41.358 26.942 42.29 27.013 42.33"/><polygon fill="#C6A677" points="26.698 42.512 26.628 42.471 26.629 42.832 26.699 42.873"/><polygon fill="#DCB884" points="27.013 42.33 26.942 42.29 26.628 42.471 26.698 42.512"/><polygon fill="#D9AE6D" points="26.698 42.512 26.699 42.873 28.942 41.578 28.941 41.217 28.627 41.398 27.013 42.33"/><g><polygon fill="#FECD82" points="28.621 39.543 28.551 39.502 28.557 41.358 28.627 41.398"/><polygon fill="#D9AE6D" points="26.692 40.296 26.622 40.256 26.628 42.471 26.698 42.512"/><polygon fill="#FFD69A" points="28.934 39.002 28.864 38.961 26.622 40.256 26.692 40.296"/><polygon fill="#D9AE6D" points="26.692 40.296 26.698 42.512 27.013 42.33 27.007 40.475 28.621 39.543 28.627 41.398 28.941 41.217 28.934 39.002"/></g><g><polygon fill="#BF9960" points="25.155 39.692 25.15 41.547 25.11 41.525 25.116 39.669"/><polygon fill="#D9AE6D" points="25.116 39.669 25.11 41.525 24.826 41.361 24.832 39.505"/><polygon fill="#BF9960" points="25.478 39.878 25.473 41.734 25.434 41.711 25.439 39.856"/><polygon fill="#D9AE6D" points="25.439 39.856 25.434 41.711 25.15 41.547 25.155 39.692"/><polygon fill="#BF9960" points="25.802 40.065 25.796 41.921 25.758 41.898 25.763 40.043"/><polygon fill="#D9AE6D" points="25.763 40.043 25.758 41.898 25.473 41.734 25.478 39.878"/><polygon fill="#BF9960" points="26.125 40.252 26.12 42.108 26.081 42.085 26.086 40.229"/><polygon fill="#D9AE6D" points="26.086 40.229 26.081 42.085 25.796 41.921 25.802 40.065"/><polygon fill="#755E3B" points="26.448 40.439 26.443 42.294 26.404 42.272 26.409 40.416"/><polygon fill="#D9AE6D" points="26.409 40.416 26.404 42.272 26.12 42.108 26.125 40.252"/><polygon fill="#DCB884" points="24.442 41.216 24.512 41.176 24.826 41.357 24.756 41.398"/><polygon fill="#FFD69A" points="24.756 41.398 24.826 41.357 26.44 42.289 26.37 42.329"/><polygon fill="#FECD82" points="26.685 42.511 26.684 42.872 24.441 41.577 24.442 41.216 24.756 41.398 26.37 42.329"/><g><polygon fill="#BF9960" points="24.761 39.542 24.832 39.501 24.826 41.357 24.756 41.398"/><polygon fill="#FFD69A" points="24.448 39.001 24.519 38.96 26.761 40.255 26.691 40.296"/><polygon fill="#FECD82" points="26.691 40.296 26.685 42.511 26.37 42.329 26.375 40.474 24.761 39.542 24.756 41.398 24.442 41.216 24.448 39.001"/></g></g><g><polygon fill="#D9AE6D" points="26.969 38.236 26.969 38.317 26.681 38.151 26.681 38.069"/><polygon fill="#8A7453" points="27.008 38.258 27.008 38.34 26.969 38.317 26.969 38.236"/><polygon fill="#D9AE6D" points="27.296 38.425 27.296 38.506 27.008 38.34 27.008 38.258"/><polygon fill="#8A7453" points="27.336 38.447 27.335 38.529 27.296 38.506 27.296 38.425"/><polygon fill="#D9AE6D" points="27.624 38.614 27.623 38.695 27.335 38.529 27.336 38.447"/><polygon fill="#8A7453" points="27.663 38.636 27.663 38.718 27.623 38.695 27.624 38.614"/><polygon fill="#D9AE6D" points="27.951 38.803 27.951 38.884 27.663 38.718 27.663 38.636"/><polygon fill="#8A7453" points="27.99 38.825 27.99 38.907 27.951 38.884 27.951 38.803"/><polygon fill="#D9AE6D" points="28.278 38.991 28.277 39.072 27.99 38.907 27.99 38.825"/><polygon fill="#BF9960" points="26.681 38.069 26.681 38.151 25.076 39.083 25.077 39.002"/><polygon fill="#8A7453" points="25.077 39.002 25.076 39.083 24.762 38.901 24.763 38.82"/><polygon fill="#8A7453" points="28.317 39.014 28.317 39.095 28.277 39.072 28.278 38.991"/><polygon fill="#FECD82" points="26.969 38.283 25.365 39.215 25.077 39.049 26.681 38.116"/><polygon fill="#8A6E46" points="25.365 39.168 25.364 39.249 25.077 39.083 25.077 39.002"/><polygon fill="#C49C63" points="26.969 38.236 26.969 38.317 25.364 39.249 25.365 39.168"/><polygon fill="#BF9960" points="27.008 38.258 27.008 38.34 25.404 39.272 25.404 39.191"/><polygon fill="#FFD69A" points="27.008 38.258 25.404 39.191 25.365 39.168 26.969 38.236"/><polygon fill="#755E3B" points="25.404 39.191 25.404 39.272 25.364 39.249 25.365 39.168"/><polygon fill="#8A6E46" points="25.692 39.357 25.692 39.438 25.404 39.272 25.404 39.191"/><polygon fill="#C49C63" points="27.296 38.425 27.296 38.506 25.692 39.438 25.692 39.357"/><polygon fill="#FECD82" points="27.296 38.472 25.692 39.404 25.404 39.238 27.008 38.305"/><polygon fill="#FFD69A" points="27.336 38.447 25.731 39.38 25.692 39.357 27.296 38.425"/><polygon fill="#755E3B" points="25.731 39.38 25.731 39.461 25.692 39.438 25.692 39.357"/><polygon fill="#BF9960" points="27.336 38.447 27.335 38.529 25.731 39.461 25.731 39.38"/><polygon fill="#FECD82" points="27.624 38.661 26.019 39.593 25.731 39.427 27.336 38.494"/><polygon fill="#C49C63" points="27.624 38.614 27.623 38.695 26.019 39.627 26.019 39.546"/><polygon fill="#8A6E46" points="26.019 39.546 26.019 39.627 25.731 39.461 25.731 39.38"/><polygon fill="#FFD69A" points="27.663 38.636 26.059 39.569 26.019 39.546 27.624 38.614"/><polygon fill="#BF9960" points="27.663 38.636 27.663 38.718 26.059 39.65 26.059 39.569"/><polygon fill="#755E3B" points="26.059 39.569 26.059 39.65 26.019 39.627 26.019 39.546"/><polygon fill="#8A6E46" points="26.347 39.735 26.346 39.816 26.059 39.65 26.059 39.569"/><polygon fill="#C49C63" points="27.951 38.803 27.951 38.884 26.346 39.816 26.347 39.735"/><polygon fill="#FECD82" points="27.951 38.85 26.347 39.782 26.059 39.616 27.663 38.683"/><polygon fill="#755E3B" points="26.386 39.758 26.386 39.839 26.346 39.816 26.347 39.735"/><polygon fill="#BF9960" points="27.99 38.825 27.99 38.907 26.386 39.839 26.386 39.758"/><polygon fill="#FFD69A" points="27.99 38.825 26.386 39.758 26.347 39.735 27.951 38.803"/><polygon fill="#C49C63" points="28.278 38.991 28.277 39.072 26.673 40.005 26.673 39.924"/><polygon fill="#FECD82" points="28.278 39.038 26.673 39.971 26.386 39.805 27.99 38.872"/><polygon fill="#8A6E46" points="26.673 39.924 26.673 40.005 26.386 39.839 26.386 39.758"/><polygon fill="#755E3B" points="26.691 39.934 26.691 40.015 26.673 40.005 26.673 39.924"/><polygon fill="#A78554" points="28.317 39.014 28.317 39.095 26.713 40.027 26.713 39.946"/><polygon fill="#755E3B" points="26.713 39.946 26.713 40.027 26.691 40.015 26.691 39.934"/><polygon fill="#FFD69A" points="28.317 39.014 26.713 39.946 26.691 39.934 26.673 39.924 28.278 38.991"/><polygon fill="#FFD69A" points="28.921 39.002 27.005 40.115 26.691 39.934 26.713 39.946 28.317 39.014 28.278 38.991 27.99 38.825 27.951 38.803 27.663 38.636 27.624 38.614 27.336 38.447 27.296 38.425 27.008 38.258 26.969 38.236 26.681 38.069 25.077 39.002 24.763 38.82 26.678 37.707"/><polygon fill="#FFD69A" points="27.005 40.115 26.693 40.296 24.451 39.002 24.763 38.82 25.077 39.002 26.691 39.934"/></g></g><g><polygon fill="#B28C59" points="29.695 36.28 29.701 38.136 29.74 38.113 29.735 36.258"/><polygon fill="#BF9960" points="29.735 36.258 29.74 38.113 30.024 37.949 30.019 36.094"/><polygon fill="#B28C59" points="29.373 36.467 29.378 38.322 29.417 38.3 29.411 36.445"/><polygon fill="#BF9960" points="29.411 36.445 29.417 38.3 29.701 38.136 29.695 36.28"/><polygon fill="#B28C59" points="29.049 36.654 29.054 38.509 29.093 38.487 29.088 36.631"/><polygon fill="#BF9960" points="29.088 36.631 29.093 38.487 29.378 38.322 29.373 36.467"/><polygon fill="#B28C59" points="28.725 36.841 28.731 38.696 28.77 38.673 28.765 36.818"/><polygon fill="#BF9960" points="28.765 36.818 28.77 38.673 29.054 38.509 29.049 36.654"/><polygon fill="#755E3B" points="28.402 37.027 28.408 38.882 28.447 38.86 28.441 37.005"/><polygon fill="#BF9960" points="28.441 37.005 28.447 38.86 28.731 38.696 28.725 36.841"/><polygon fill="#DCB884" points="30.409 37.805 30.338 37.764 30.024 37.945 30.095 37.986"/><polygon fill="#FFD69A" points="30.095 37.986 30.024 37.945 28.41 38.877 28.48 38.918"/><polygon fill="#C6A677" points="28.166 39.1 28.096 39.059 28.097 39.42 28.167 39.46"/><polygon fill="#DCB884" points="28.48 38.918 28.41 38.877 28.096 39.059 28.166 39.1"/><polygon fill="#D9AE6D" points="28.166 39.1 28.167 39.46 30.41 38.166 30.409 37.805 30.095 37.986 28.48 38.918"/><g><polygon fill="#FECD82" points="30.089 36.131 30.019 36.09 30.024 37.945 30.095 37.986"/><polygon fill="#D9AE6D" points="28.159 36.884 28.089 36.843 28.096 39.059 28.166 39.1"/><polygon fill="#FFD69A" points="30.402 35.589 30.332 35.548 28.089 36.843 28.159 36.884"/><polygon fill="#D9AE6D" points="28.159 36.884 28.166 39.1 28.48 38.918 28.475 37.063 30.089 36.131 30.095 37.986 30.409 37.805 30.402 35.589"/></g><g><polygon fill="#BF9960" points="26.623 36.28 26.618 38.135 26.578 38.112 26.583 36.257"/><polygon fill="#D9AE6D" points="26.583 36.257 26.578 38.112 26.294 37.948 26.299 36.093"/><polygon fill="#BF9960" points="26.946 36.466 26.941 38.321 26.902 38.299 26.907 36.444"/><polygon fill="#D9AE6D" points="26.907 36.444 26.902 38.299 26.618 38.135 26.623 36.28"/><polygon fill="#BF9960" points="27.269 36.653 27.264 38.508 27.225 38.486 27.231 36.63"/><polygon fill="#D9AE6D" points="27.231 36.63 27.225 38.486 26.941 38.321 26.946 36.466"/><polygon fill="#BF9960" points="27.593 36.84 27.588 38.695 27.548 38.672 27.554 36.817"/><polygon fill="#D9AE6D" points="27.554 36.817 27.548 38.672 27.264 38.508 27.269 36.653"/><polygon fill="#755E3B" points="27.916 37.026 27.911 38.882 27.872 38.859 27.877 37.004"/><polygon fill="#D9AE6D" points="27.877 37.004 27.872 38.859 27.588 38.695 27.593 36.84"/><polygon fill="#DCB884" points="25.91 37.804 25.98 37.763 26.294 37.944 26.224 37.985"/><polygon fill="#FFD69A" points="26.224 37.985 26.294 37.944 27.908 38.876 27.838 38.917"/><polygon fill="#FECD82" points="28.153 39.099 28.152 39.46 25.909 38.165 25.91 37.804 26.224 37.985 27.838 38.917"/><g><polygon fill="#BF9960" points="26.229 36.13 26.299 36.089 26.294 37.944 26.224 37.985"/><polygon fill="#FFD69A" points="25.916 35.588 25.986 35.548 28.229 36.842 28.159 36.883"/><polygon fill="#FECD82" points="28.159 36.883 28.153 39.099 27.838 38.917 27.843 37.062 26.229 36.13 26.224 37.985 25.91 37.804 25.916 35.588"/></g></g><g><polygon fill="#D9AE6D" points="28.437 34.823 28.436 34.904 28.148 34.738 28.149 34.657"/><polygon fill="#8A7453" points="28.476 34.846 28.476 34.927 28.436 34.904 28.437 34.823"/><polygon fill="#D9AE6D" points="28.764 35.012 28.764 35.093 28.476 34.927 28.476 34.846"/><polygon fill="#8A7453" points="28.803 35.035 28.803 35.116 28.764 35.093 28.764 35.012"/><polygon fill="#D9AE6D" points="29.091 35.201 29.091 35.282 28.803 35.116 28.803 35.035"/><polygon fill="#8A7453" points="29.131 35.224 29.131 35.305 29.091 35.282 29.091 35.201"/><polygon fill="#D9AE6D" points="29.419 35.39 29.419 35.471 29.131 35.305 29.131 35.224"/><polygon fill="#8A7453" points="29.458 35.413 29.458 35.494 29.419 35.471 29.419 35.39"/><polygon fill="#D9AE6D" points="29.745 35.579 29.745 35.66 29.458 35.494 29.458 35.413"/><polygon fill="#BF9960" points="28.149 34.657 28.148 34.738 26.544 35.67 26.544 35.589"/><polygon fill="#8A7453" points="26.544 35.589 26.544 35.67 26.23 35.489 26.23 35.408"/><polygon fill="#8A7453" points="29.785 35.602 29.785 35.683 29.745 35.66 29.745 35.579"/><polygon fill="#FECD82" points="28.437 34.87 26.832 35.802 26.545 35.637 28.149 34.704"/><polygon fill="#8A6E46" points="26.832 35.755 26.832 35.837 26.545 35.671 26.545 35.59"/><polygon fill="#C49C63" points="28.437 34.823 28.436 34.904 26.832 35.837 26.832 35.755"/><polygon fill="#BF9960" points="28.476 34.846 28.476 34.927 26.872 35.859 26.872 35.778"/><polygon fill="#FFD69A" points="28.476 34.846 26.872 35.778 26.832 35.755 28.437 34.823"/><polygon fill="#755E3B" points="26.872 35.778 26.872 35.859 26.832 35.837 26.832 35.755"/><polygon fill="#8A6E46" points="27.16 35.944 27.16 36.026 26.872 35.859 26.872 35.778"/><polygon fill="#C49C63" points="28.764 35.012 28.764 35.093 27.16 36.026 27.16 35.944"/><polygon fill="#FECD82" points="28.764 35.059 27.16 35.991 26.872 35.825 28.476 34.893"/><polygon fill="#FFD69A" points="28.803 35.035 27.199 35.967 27.16 35.944 28.764 35.012"/><polygon fill="#755E3B" points="27.199 35.967 27.199 36.048 27.16 36.026 27.16 35.944"/><polygon fill="#BF9960" points="28.803 35.035 28.803 35.116 27.199 36.048 27.199 35.967"/><polygon fill="#FECD82" points="29.091 35.248 27.487 36.18 27.199 36.014 28.803 35.082"/><polygon fill="#C49C63" points="29.091 35.201 29.091 35.282 27.487 36.215 27.487 36.133"/><polygon fill="#8A6E46" points="27.487 36.133 27.487 36.215 27.199 36.048 27.199 35.967"/><polygon fill="#FFD69A" points="29.131 35.224 27.527 36.156 27.487 36.133 29.091 35.201"/><polygon fill="#BF9960" points="29.131 35.224 29.131 35.305 27.526 36.237 27.527 36.156"/><polygon fill="#755E3B" points="27.527 36.156 27.526 36.237 27.487 36.215 27.487 36.133"/><polygon fill="#8A6E46" points="27.815 36.323 27.814 36.404 27.526 36.237 27.527 36.156"/><polygon fill="#C49C63" points="29.419 35.39 29.419 35.471 27.814 36.404 27.815 36.323"/><polygon fill="#FECD82" points="29.419 35.437 27.815 36.37 27.527 36.203 29.131 35.271"/><polygon fill="#755E3B" points="27.854 36.345 27.854 36.426 27.814 36.404 27.815 36.323"/><polygon fill="#BF9960" points="29.458 35.413 29.458 35.494 27.854 36.426 27.854 36.345"/><polygon fill="#FFD69A" points="29.458 35.413 27.854 36.345 27.815 36.323 29.419 35.39"/><polygon fill="#C49C63" points="29.745 35.579 29.745 35.66 28.141 36.592 28.141 36.511"/><polygon fill="#FECD82" points="29.745 35.626 28.141 36.558 27.854 36.392 29.458 35.46"/><polygon fill="#8A6E46" points="28.141 36.511 28.141 36.592 27.854 36.426 27.854 36.345"/><polygon fill="#755E3B" points="28.159 36.521 28.159 36.603 28.141 36.592 28.141 36.511"/><polygon fill="#A78554" points="29.785 35.602 29.785 35.683 28.18 36.615 28.181 36.534"/><polygon fill="#755E3B" points="28.181 36.534 28.18 36.615 28.159 36.603 28.159 36.521"/><polygon fill="#FFD69A" points="29.785 35.602 28.181 36.534 28.159 36.521 28.141 36.511 29.745 35.579"/><polygon fill="#FFD69A" points="30.389 35.59 28.473 36.703 28.159 36.521 28.181 36.534 29.785 35.602 29.745 35.579 29.458 35.413 29.419 35.39 29.131 35.224 29.091 35.201 28.803 35.035 28.764 35.012 28.476 34.846 28.437 34.823 28.149 34.657 26.544 35.589 26.23 35.408 28.146 34.295"/><polygon fill="#FFD69A" points="28.473 36.703 28.161 36.884 25.918 35.589 26.23 35.408 26.545 35.59 28.159 36.521"/></g></g></svg>